PathFileType	4	(X/Y/Z)	F:\MotionCapture\20160217\3\Generated_files\EMG_Fprce_test05-Dynamic.trc
DataRate	CameraRate	NumFrames	NumMarkers	Units	OrigDataRate	OrigDataStartFrame	OrigNumFrames
120.00	120.00	       7	39	mm	120.00	142	       188
Frame#	Time	Top.Head			Front.Head			Rear.Head			R.Shoulder			R.Offset			R.Elbow			R.Wrist			L.Shoulder			L.Elbow			L.Wrist			R.ASIS			L.ASIS			V.Sacral			R.Thigh			R.Knee			R.Shank			R.Ankle			R.Heel			R.Toe			L.Thigh			L.Knee			L.Shank			L.Ankle			L.Heel			L.Toe			R1			R2			R3			R4			R5			R6			R7			L1			L2			L3			L4			L5			L6			L7			V_Mid_ASIS			V_Pelvis_Origin			V_R.Hip_JC			V_L.Hip_JC			V_R.Knee_JC			V_L.Knee_JC			V_R.Ankle_JC			V_L.Ankle_JC			V_Mid_Hip			V_Mid_Shoulder			V_R.Hand			V_L.Hand			V_R.Toe_Offset_Static			V_L.Toe_Offset_Static			V_R.Toe_Offset			V_L.Toe_Offset			
		X1	Y1	Z1	X2	Y2	Z2	X3	Y3	Z3	X4	Y4	Z4	X5	Y5	Z5	X6	Y6	Z6	X7	Y7	Z7	X8	Y8	Z8	X9	Y9	Z9	X10	Y10	Z10	X11	Y11	Z11	X12	Y12	Z12	X13	Y13	Z13	X14	Y14	Z14	X15	Y15	Z15	X16	Y16	Z16	X17	Y17	Z17	X18	Y18	Z18	X19	Y19	Z19	X20	Y20	Z20	X21	Y21	Z21	X22	Y22	Z22	X23	Y23	Z23	X24	Y24	Z24	X25	Y25	Z25	X26	Y26	Z26	X27	Y27	Z27	X28	Y28	Z28	X29	Y29	Z29	X30	Y30	Z30	X31	Y31	Z31	X32	Y32	Z32	X33	Y33	Z33	X34	Y34	Z34	X35	Y35	Z35	X36	Y36	Z36	X37	Y37	Z37	X38	Y38	Z38	X39	Y39	Z39	

142	1.175	2352.00562	1.64192	1692.18347	2244.98901	-0.60556	1601.98242	2464.26123	0.39677	1629.82874	2415.51929	209.58987	1403.24951	2558.96729	-46.04636	1248.09521	2535.97852	325.37579	1114.63855	2522.05054	397.83054	862.44025	2401.49658	-198.00520	1379.33472	2358.74365	-247.38918	1041.88123	2148.20728	-176.00119	909.57782	2349.69507	166.89156	929.64832	2366.59180	-120.63795	913.03925	2580.41284	40.31148	903.74902	2164.55078	152.65237	640.64856	2169.96069	207.59142	517.37262	2111.58081	154.25143	285.34488	2126.64917	231.66168	113.81961	2187.00220	166.74548	78.18808	1978.17273	211.06427	87.06706	2327.43677	-72.73765	587.13916	2436.23242	-106.12650	424.09430	2467.43677	-20.99220	287.82629	2643.52197	-50.62343	68.49020	2701.67847	15.77346	59.62484	2508.55347	-72.02970	46.65840	1930.18713	191.15338	84.96526	1973.79419	177.47270	96.16614	2071.74878	143.09650	106.68729	2141.00537	138.59399	84.36009	2157.63452	210.90169	80.10071	2078.68286	239.70892	73.98286	2011.72986	246.86519	72.73383	2458.95459	-50.17270	39.85316	2491.63184	-33.99323	49.90221	2575.56567	25.08504	52.80522	2658.09009	40.35066	55.53045	2683.24854	-28.97432	55.28046	2616.34253	-68.55180	39.28233	2556.01025	-96.02242	42.72364																																																	2299.43457	-133.23972	295.32260	
143	1.183	2358.20410	2.12206	1694.13232	2250.24658	-0.67291	1603.99658	2470.58398	0.07800	1631.77869	2422.13306	209.72974	1405.29590	2564.06006	-46.81620	1249.60327	2540.11694	325.52759	1115.80225	2522.86792	397.75024	863.83362	2407.03613	-197.97742	1381.21997	2365.77881	-247.42778	1042.86218	2156.36572	-177.55804	908.98755	2354.23438	167.63379	931.97296	2370.79785	-119.76449	914.63501	2585.53271	39.90546	905.61346	2170.01147	154.44016	641.77063	2176.09912	209.76620	518.32983	2122.76440	155.81145	284.47586	2142.34204	233.41949	113.81267	2203.61328	168.21767	78.70028	1994.79993	212.41243	86.28329	2331.19653	-71.93674	589.03809	2438.96973	-105.88202	425.43015	2469.13965	-20.24716	289.24289	2643.68506	-51.66522	67.88245	2701.81738	15.55846	59.32040	2508.56982	-72.00191	46.65291	1946.53308	192.90030	84.66306	1990.11255	178.83884	95.63966	2088.26953	144.49597	106.34724	2157.30713	140.30530	84.47770	2173.80078	212.31880	79.79021	2094.88159	241.79713	73.97327	2028.63782	248.73746	72.58297	2458.97656	-50.12051	39.89186	2491.65918	-33.98648	49.91006	2575.75098	25.10821	52.82266	2658.28345	40.23992	55.18759	2683.28003	-29.09513	55.06902	2616.53833	-70.27470	41.07623	2554.78296	-95.98380	42.87811																																																	2314.92261	-134.84975	297.17725	3032.38574	103.01061	-104.27756	
144	1.192	2364.28857	1.66372	1696.09167	2256.53662	-0.22842	1606.14417	2476.67456	0.16251	1633.45813	2427.59082	209.15295	1407.23010	2568.92944	-47.30608	1251.25513	2543.30396	324.91251	1116.19971	2523.20435	397.69247	864.86096	2411.23169	-197.96278	1382.92676	2372.98120	-247.96196	1044.74207	2165.01563	-178.92212	908.05359	2361.33325	168.79745	934.82263	2375.21924	-119.45896	916.45587	2590.31421	39.61846	907.36493	2174.79541	156.96767	642.51685	2183.15576	211.94817	519.35144	2135.35864	157.66776	284.06259	2159.91772	233.79080	113.60580	2220.32397	169.40355	79.32630	2011.68042	214.20541	85.86407	2334.69385	-70.60980	590.21167	2442.39648	-104.44791	426.88303	2470.98511	-20.00531	290.02802	2643.94775	-52.32943	67.89588	2701.86914	15.21630	58.96076	2508.57666	-72.03135	46.65391	1963.58655	194.86874	84.15790	2006.81604	180.66931	95.32770	2104.50781	146.54875	106.12682	2173.98486	141.57330	84.31587	2190.95508	213.95456	80.05148	2112.09497	242.22366	72.39024	2045.32800	249.58754	71.60521	2459.01953	-50.05360	39.94516	2491.64673	-33.87934	49.90159	2575.67578	24.69222	52.71786	2657.86353	38.80283	53.42362	2683.48486	-29.37772	54.86547	2616.51196	-70.32442	41.08861	2555.94482	-96.02670	42.73365																																																	1892.38635	155.46342	193.33797	2330.46094	-135.59459	297.74359	3038.56665	105.58290	-103.98122	
145	1.200	2370.41162	2.05982	1697.89990	2262.40552	0.40514	1608.25854	2482.67041	-0.02582	1635.41687	2433.45728	209.36151	1409.32678	2573.77930	-47.74775	1252.98596	2547.10962	324.86337	1117.33228	2523.51318	397.91687	865.98407	2416.07446	-198.25800	1384.68848	2380.17847	-248.14203	1046.03174	2173.62305	-180.72089	906.93353	2367.03784	169.54388	936.89966	2378.90771	-117.39415	917.55908	2595.28296	39.45335	908.95111	2180.33447	158.95525	643.35785	2189.68188	213.61189	520.09924	2147.23706	159.28629	283.46622	2175.63892	236.01782	113.64394	2237.16455	170.88873	80.06731	2028.71082	216.55762	85.12096	2338.81836	-68.94781	592.29388	2445.20264	-103.65656	428.74570	2473.69800	-18.67551	291.59283	2644.08105	-52.57153	67.55864	2701.99829	14.71276	58.29409	2508.54150	-71.94087	46.54546	1980.65088	197.28809	83.29881	2024.17151	182.86761	94.63825	2121.02612	148.01563	105.85725	2190.83276	142.74644	84.91566	2208.27490	215.26891	80.36827	2128.49390	244.90137	72.36110	2062.44019	251.77078	70.98609	2459.04761	-49.91181	39.86972	2491.60547	-33.66507	49.60520	2576.10327	24.75685	52.51479	2658.01392	38.20883	52.85946	2683.39697	-29.70085	54.62714	2616.55054	-70.28539	41.01270	2554.35913	-95.25740	42.70897																																																	2346.31567	-136.48694	298.98773	
146	1.208	2376.27368	2.39036	1700.05127	2267.90112	0.61035	1610.22046	2488.26587	-0.04839	1637.07373	2439.41699	209.14926	1411.22839	2578.52734	-48.07213	1254.51050	2551.08691	325.53033	1118.10266	2523.14087	397.88968	866.95087	2420.40552	-198.27461	1386.33228	2387.80908	-248.84248	1047.85559	2181.43481	-182.11443	905.68835	2372.26489	170.29512	938.94891	2383.50977	-117.61990	919.77240	2600.11816	39.34215	910.90509	2186.17578	160.88873	644.60254	2196.60913	214.59470	520.65680	2159.71655	160.62573	283.53995	2193.09399	236.39954	113.65401	2254.16943	172.29388	80.83740	2046.07935	218.05521	84.42078	2342.91602	-67.90030	593.54517	2448.67725	-103.35236	430.31171	2476.02075	-18.79362	292.73877	2644.35693	-52.93801	67.44102	2702.39673	14.45714	57.75445	2508.53931	-71.88712	46.54383	1997.71472	199.80789	82.80467	2040.83020	184.78365	93.74370	2137.85815	149.60948	105.95147	2207.37622	144.58049	84.99025	2225.46777	216.65033	81.19265	2146.79126	246.15472	72.07793	2080.54272	253.26021	70.22325	2459.11475	-49.85751	39.85918	2491.66846	-33.50140	49.57034	2576.58374	24.84307	52.60762	2658.57642	39.00690	53.59377	2683.43774	-30.19291	54.02723	2616.62256	-70.49738	41.05524	2554.28442	-95.15126	42.67941																																																	2362.16504	-138.04124	300.33228	
147	1.217	2381.90356	2.59581	1701.98291	2273.63623	1.64987	1612.52002	2494.02588	-0.03845	1639.17578	2444.83301	209.73685	1413.16858	2583.05786	-48.36411	1256.17908	2553.70288	324.52979	1118.44104	2522.99170	397.71579	868.59045	2424.86279	-198.14409	1387.71948	2394.50220	-248.87068	1048.97266	2190.47168	-183.89229	904.20721	2377.63257	171.86925	941.23718	2387.94360	-116.63087	921.02234	2604.99561	39.23889	912.71222	2191.89917	163.22496	645.26227	2204.08228	216.59001	520.88489	2172.50415	162.70518	283.18860	2209.25610	238.61761	114.14108	2271.55420	173.75266	81.63686	2064.11572	220.24748	83.44609	2347.09814	-66.04396	595.14209	2452.45166	-102.46159	432.05353	2478.51172	-18.24309	294.59802	2644.60986	-53.10867	67.33650	2702.60840	14.25812	57.34222	2508.53516	-71.78526	46.56091	2015.26013	202.18733	81.83112	2058.35547	186.98274	93.05814	2154.30884	151.80135	105.05727	2224.76294	146.29468	85.83770	2243.80688	218.78764	82.07175	2163.86597	247.63402	71.72056	2098.10474	254.84821	69.41792	2459.11255	-49.69259	39.85335	2491.74170	-33.27381	49.57224	2576.83643	24.74749	52.73512	2659.53320	39.34879	54.05835	2683.80469	-30.27830	53.39801	2616.58374	-70.52431	41.03842	2555.05811	-96.05507	42.96095	
148	1.225	2387.10547	3.03912	1703.83911	2279.04980	2.45193	1614.61353	2499.44434	0.14931	1640.97986	2450.53882	209.60396	1415.11255	2587.62256	-48.41953	1257.71924	2557.72925	325.31091	1119.31567	2522.71021	397.89420	870.01636	2429.28149	-198.10069	1389.68652	2401.06689	-248.48730	1050.10803	2198.75317	-185.41534	903.04639	2382.78931	172.82829	943.26862	2392.17529	-115.61766	922.61499	2609.53906	39.54282	914.50854	2197.84229	165.92517	645.77368	2211.72021	217.73077	521.41656	2184.73071	163.97427	282.75940	2225.86621	240.02550	114.92719	2288.82397	174.91756	82.55086	2082.07617	222.56023	83.05069	2351.20410	-65.20111	597.03613	2455.71143	-101.20819	433.52835	2480.52588	-17.87947	295.48135	2644.81372	-53.32394	67.36256	2702.80322	13.93686	56.94921	2508.56616	-71.75581	46.56889	2032.76221	205.35826	80.84088	2076.08276	189.57838	92.51743	2171.57959	153.29436	104.78711	2241.20972	147.78033	85.59921	2261.61450	220.28142	83.33408	2181.87549	248.99788	71.83712	2115.89795	256.88974	69.20238	2459.14307	-49.67558	39.89127	2491.81665	-33.09318	49.65297	2577.04907	24.69057	52.90492	2659.46411	38.47892	53.14967	2684.12549	-30.43021	53.12853	2615.80249	-71.50474	37.94820	2553.39844	-94.77393	41.66706	
